<svg viewBox="0 0 512 512" xmlns="http://www.w3.org/2000/svg">
  <defs>
    <style>
      .dex-logo { fill: currentColor; }
    </style>
  </defs>
  <path class="dex-logo" d="M256 64L320 96L384 64L384 128L352 160L384 192L384 256L320 224L288 288L256 224L224 288L192 224L128 256L128 192L160 160L128 128L128 64L192 96L256 64Z M224 128C224 112 232 104 248 104C264 104 272 112 272 128C272 144 264 152 248 152C232 152 224 144 224 128Z M280 104C296 104 304 112 304 128C304 144 296 152 280 152C264 152 256 144 256 128C256 112 264 104 280 104Z M232 168L256 184L280 168L296 192L256 240L216 192L232 168Z M192 320L256 448L320 320L352 352L256 512L160 352L192 320Z"/>
</svg>